<?xml version="1.0" encoding="UTF-8" standalone="no"?>
<svg
   xmlns:dc="http://purl.org/dc/elements/1.1/"
   xmlns:cc="http://creativecommons.org/ns#"
   xmlns:rdf="http://www.w3.org/1999/02/22-rdf-syntax-ns#"
   xmlns:svg="http://www.w3.org/2000/svg"
   xmlns="http://www.w3.org/2000/svg"
   xmlns:sodipodi="http://sodipodi.sourceforge.net/DTD/sodipodi-0.dtd"
   xmlns:inkscape="http://www.inkscape.org/namespaces/inkscape"
   version="1.1"
   width="12.5in"
   height="6.75in"
   viewBox=" 0 0 1125 607.5"
   id="svg4136"
   inkscape:version="0.91 r13725"
   sodipodi:docname="caseplans.svg">
  <metadata
     id="metadata4166">
    <rdf:RDF>
      <cc:Work
         rdf:about="">
        <dc:format>image/svg+xml</dc:format>
        <dc:type
           rdf:resource="http://purl.org/dc/dcmitype/StillImage" />
        <dc:title />
        <cc:license
           rdf:resource="http://creativecommons.org/licenses/by-nc/3.0/" />
      </cc:Work>
      <cc:License
         rdf:about="http://creativecommons.org/licenses/by-nc/3.0/">
        <cc:permits
           rdf:resource="http://creativecommons.org/ns#Reproduction" />
        <cc:permits
           rdf:resource="http://creativecommons.org/ns#Distribution" />
        <cc:requires
           rdf:resource="http://creativecommons.org/ns#Notice" />
        <cc:requires
           rdf:resource="http://creativecommons.org/ns#Attribution" />
        <cc:prohibits
           rdf:resource="http://creativecommons.org/ns#CommercialUse" />
        <cc:permits
           rdf:resource="http://creativecommons.org/ns#DerivativeWorks" />
      </cc:License>
    </rdf:RDF>
  </metadata>
  <defs
     id="defs4164" />
  <sodipodi:namedview
     pagecolor="#ffffff"
     bordercolor="#666666"
     borderopacity="1"
     objecttolerance="10"
     gridtolerance="10"
     guidetolerance="10"
     inkscape:pageopacity="0"
     inkscape:pageshadow="2"
     inkscape:window-width="1680"
     inkscape:window-height="988"
     id="namedview4162"
     showgrid="false"
     inkscape:document-units="in"
     inkscape:zoom="2.24"
     inkscape:cx="255.50323"
     inkscape:cy="346.7224"
     inkscape:window-x="-8"
     inkscape:window-y="-8"
     inkscape:window-maximized="1"
     inkscape:current-layer="svg4136"
     inkscape:snap-midpoints="true" />
  <!-- Front-->
  <g
     transform="translate(22.5, 22.5) "
     id="g4138"
     style="fill:none">
    <polygon
       style="stroke:#000000;fill:none;stroke-width:0.9"
       points="0, 0 42.75000000000001, 0 42.75000000000001, 10.62 85.50000000000001, 10.62 85.50000000000001, 0 112.50000000000001, 0 112.50000000000001, 10.62 139.5, 10.62 139.5, 0 166.5, 0 166.5, 10.62 193.5, 10.62 193.5, 0 220.5, 0 220.5, 10.62 247.5, 10.62 247.5, 0 274.5, 0 274.5, 10.62 317.25, 10.62 317.25, 0 360, 0 360, 43.87500000000001 349.38, 43.87500000000001 349.38, 87.75000000000001 360, 87.75000000000001 360, 114.75000000000001 349.38, 114.75000000000001 349.38, 158.62500000000003 360, 158.62500000000003 360, 202.5 317.25, 202.5 317.25, 191.88 274.5, 191.88 274.5, 202.5 247.5, 202.5 247.5, 191.88 220.5, 191.88 220.5, 202.5 193.5, 202.5 193.5, 191.88 166.5, 191.88 166.5, 202.5 139.5, 202.5 139.5, 191.88 112.50000000000001, 191.88 112.50000000000001, 202.5 85.50000000000001, 202.5 85.50000000000001, 191.88 42.75000000000001, 191.88 42.75000000000001, 202.5 0, 202.50000000000003 0, 158.62500000000003 10.62, 158.62500000000003 10.62, 114.75000000000001 0, 114.75000000000001 0, 87.75000000000001 10.62, 87.75000000000001 10.62, 43.87500000000001 0, 43.87500000000001 "
       id="polygon4140" />
  </g>
  <!-- Back-->
  <g
     transform="translate(382.5, 22.5) "
     id="g4142">
    <polygon
       style="stroke:#000000; fill:none; stroke-width:0.9"
       points="0, 0 42.75000000000001, 0 42.75000000000001, 10.62 85.50000000000001, 10.62 85.50000000000001, 0 112.50000000000001, 0 112.50000000000001, 10.62 139.5, 10.62 139.5, 0 166.5, 0 166.5, 10.62 193.5, 10.62 193.5, 0 220.5, 0 220.5, 10.62 247.5, 10.62 247.5, 0 274.5, 0 274.5, 10.62 317.25, 10.62 317.25, 0 360, 0 360, 43.87500000000001 349.38, 43.87500000000001 349.38, 87.75000000000001 360, 87.75000000000001 360, 114.75000000000001 349.38, 114.75000000000001 349.38, 158.62500000000003 360, 158.62500000000003 360, 202.5 317.25, 202.5 317.25, 191.88 274.5, 191.88 274.5, 202.5 247.5, 202.5 247.5, 191.88 220.5, 191.88 220.5, 202.5 193.5, 202.5 193.5, 191.88 166.5, 191.88 166.5, 202.5 139.5, 202.5 139.5, 191.88 112.50000000000001, 191.88 112.50000000000001, 202.5 85.50000000000001, 202.5 85.50000000000001, 191.88 42.75000000000001, 191.88 42.75000000000001, 202.5 0, 202.50000000000003 0, 158.62500000000003 10.62, 158.62500000000003 10.62, 114.75000000000001 0, 114.75000000000001 0, 87.75000000000001 10.62, 87.75000000000001 10.62, 43.87500000000001 0, 43.87500000000001 "
       id="polygon4144" />
  </g>
  <!-- Left-->
  <g
     transform="translate(742.5, 22.5) "
     id="g4146">
    <polygon
       style="stroke:#000000; fill:none; stroke-width:0.9"
       points="10.62, 0 42.75000000000001, 0 42.75000000000001, 10.62 85.50000000000001, 10.62 85.50000000000001, 0 112.50000000000001, 0 112.50000000000001, 10.62 139.5, 10.62 139.5, 0 166.5, 0 166.5, 10.62 193.5, 10.62 193.5, 0 220.5, 0 220.5, 10.62 247.5, 10.62 247.5, 0 274.5, 0 274.5, 10.62 317.25, 10.62 317.25, 0 349.38, 0 349.38, 43.87500000000001 360, 43.87500000000001 360, 87.75000000000001 349.38, 87.75000000000001 349.38, 114.75000000000001 360, 114.75000000000001 360, 158.62500000000003 349.38, 158.62500000000003 349.38, 202.5 317.25, 202.5 317.25, 191.88 274.5, 191.88 274.5, 202.5 247.5, 202.5 247.5, 191.88 220.5, 191.88 220.5, 202.5 193.5, 202.5 193.5, 191.88 166.5, 191.88 166.5, 202.5 139.5, 202.5 139.5, 191.88 112.50000000000001, 191.88 112.50000000000001, 202.5 85.50000000000001, 202.5 85.50000000000001, 191.88 42.75000000000001, 191.88 42.75000000000001, 202.5 10.62, 202.50000000000003 10.62, 158.62500000000003 0, 158.62500000000003 0, 114.75000000000001 10.62, 114.75000000000001 10.62, 87.75000000000001 0, 87.75000000000001 0, 43.87500000000001 10.62, 43.87500000000001 "
       id="polygon4148" />
  </g>
  <!-- Right-->
  <g
     transform="translate(742.5, 225) "
     id="g4150">
    <polygon
       style="stroke:#000000; fill:none; stroke-width:0.9"
       points="10.62, 0 42.75000000000001, 0 42.75000000000001, 10.62 85.50000000000001, 10.62 85.50000000000001, 0 112.50000000000001, 0 112.50000000000001, 10.62 139.5, 10.62 139.5, 0 166.5, 0 166.5, 10.62 193.5, 10.62 193.5, 0 220.5, 0 220.5, 10.62 247.5, 10.62 247.5, 0 274.5, 0 274.5, 10.62 317.25, 10.62 317.25, 0 349.38, 0 349.38, 43.87500000000001 360, 43.87500000000001 360, 87.75000000000001 349.38, 87.75000000000001 349.38, 114.75000000000001 360, 114.75000000000001 360, 158.62500000000003 349.38, 158.62500000000003 349.38, 202.5 317.25, 202.5 317.25, 191.88 274.5, 191.88 274.5, 202.5 247.5, 202.5 247.5, 191.88 220.5, 191.88 220.5, 202.5 193.5, 202.5 193.5, 191.88 166.5, 191.88 166.5, 202.5 139.5, 202.5 139.5, 191.88 112.50000000000001, 191.88 112.50000000000001, 202.5 85.50000000000001, 202.5 85.50000000000001, 191.88 42.75000000000001, 191.88 42.75000000000001, 202.5 10.62, 202.50000000000003 10.62, 158.62500000000003 0, 158.62500000000003 0, 114.75000000000001 10.62, 114.75000000000001 10.62, 87.75000000000001 0, 87.75000000000001 0, 43.87500000000001 10.62, 43.87500000000001 "
       id="polygon4152" />
  </g>
  <!-- Top-->
  <g
     transform="translate(22.5, 225) "
     id="g4154">
    <polygon
       style="stroke:#000000; fill:none; stroke-width:0.9"
       points="10.62, 10.62 42.75000000000001, 10.62 42.75000000000001, 0 85.50000000000001, 0 85.50000000000001, 10.62 112.50000000000001, 10.62 112.50000000000001, 0 139.5, 0 139.5, 10.62 166.5, 10.62 166.5, 0 193.5, 0 193.5, 10.62 220.5, 10.62 220.5, 0 247.5, 0 247.5, 10.62 274.5, 10.62 274.5, 0 317.25, 0 317.25, 10.62 349.38, 10.62 349.38, 42.75000000000001 360, 42.75000000000001 360, 85.50000000000001 349.38, 85.50000000000001 349.38, 112.50000000000001 360, 112.50000000000001 360, 139.5 349.38, 139.5 349.38, 166.5 360, 166.5 360, 193.5 349.38, 193.5 349.38, 220.5 360, 220.5 360, 247.5 349.38, 247.5 349.38, 274.5 360, 274.5 360, 317.25 349.38, 317.25 349.38, 349.38 317.25, 349.38 317.25, 360 274.5, 360 274.5, 349.38 247.5, 349.38 247.5, 360 220.5, 360 220.5, 349.38 193.5, 349.38 193.5, 360 166.5, 360 166.5, 349.38 139.5, 349.38 139.5, 360 112.50000000000001, 360 112.50000000000001, 349.38 85.50000000000001, 349.38 85.50000000000001, 360 42.75000000000001, 360 42.75000000000001, 349.38 10.62, 349.38 10.62, 317.25 0, 317.25 0, 274.5 10.62, 274.5 10.62, 247.5 0, 247.5 0, 220.5 10.62, 220.5 10.62, 193.5 0, 193.5 0, 166.5 10.62, 166.5 10.62, 139.5 0, 139.5 0, 112.50000000000001 10.62, 112.50000000000001 10.62, 85.50000000000001 0, 85.50000000000001 0, 42.75000000000001 10.62, 42.75000000000001 "
       id="polygon4156" />
  </g>
  <!-- Bottom-->
  <g
     transform="translate(382.5, 225) "
     id="g4158">
    <polygon
       style="stroke:#000000; fill:none; stroke-width:0.9"
       points="10.62, 10.62 42.75000000000001, 10.62 42.75000000000001, 0 85.50000000000001, 0 85.50000000000001, 10.62 112.50000000000001, 10.62 112.50000000000001, 0 139.5, 0 139.5, 10.62 166.5, 10.62 166.5, 0 193.5, 0 193.5, 10.62 220.5, 10.62 220.5, 0 247.5, 0 247.5, 10.62 274.5, 10.62 274.5, 0 317.25, 0 317.25, 10.62 349.38, 10.62 349.38, 42.75000000000001 360, 42.75000000000001 360, 85.50000000000001 349.38, 85.50000000000001 349.38, 112.50000000000001 360, 112.50000000000001 360, 139.5 349.38, 139.5 349.38, 166.5 360, 166.5 360, 193.5 349.38, 193.5 349.38, 220.5 360, 220.5 360, 247.5 349.38, 247.5 349.38, 274.5 360, 274.5 360, 317.25 349.38, 317.25 349.38, 349.38 317.25, 349.38 317.25, 360 274.5, 360 274.5, 349.38 247.5, 349.38 247.5, 360 220.5, 360 220.5, 349.38 193.5, 349.38 193.5, 360 166.5, 360 166.5, 349.38 139.5, 349.38 139.5, 360 112.50000000000001, 360 112.50000000000001, 349.38 85.50000000000001, 349.38 85.50000000000001, 360 42.75000000000001, 360 42.75000000000001, 349.38 10.62, 349.38 10.62, 317.25 0, 317.25 0, 274.5 10.62, 274.5 10.62, 247.5 0, 247.5 0, 220.5 10.62, 220.5 10.62, 193.5 0, 193.5 0, 166.5 10.62, 166.5 10.62, 139.5 0, 139.5 0, 112.50000000000001 10.62, 112.50000000000001 10.62, 85.50000000000001 0, 85.50000000000001 0, 42.75000000000001 10.62, 42.75000000000001 "
       id="polygon4160" />
  </g>
  <rect
     style="fill:none;fill-opacity:1;stroke:#000000;stroke-width:0.09;stroke-opacity:1;stroke-miterlimit:4;stroke-dasharray:none"
     id="rect4168"
     width="255.16292"
     height="87.953522"
     x="76.522789"
     y="426.98218" />
  <rect
     style="fill:none;fill-opacity:1;stroke:#000000;stroke-width:0.09;stroke-opacity:1;stroke-miterlimit:4;stroke-dasharray:none"
     id="rect4170"
     width="20.679466"
     height="60.243473"
     x="137.90858"
     y="271.45355" />
  <circle
     style="fill:none;fill-opacity:1;stroke:#000000;stroke-width:0.09;stroke-opacity:1;stroke-miterlimit:4;stroke-dasharray:none"
     id="path4178"
     cx="293.57501"
     cy="300.53214"
     r="12.314189" />
  <rect
     style="fill:none;fill-opacity:1;stroke:#000000;stroke-width:0.09;stroke-opacity:1;stroke-miterlimit:4;stroke-dasharray:none"
     id="rect4180"
     width="44.576817"
     height="40.362598"
     x="833.20447"
     y="357.41864" />
  <rect
     style="fill:none;fill-opacity:1;stroke:#000000;stroke-width:0.09;stroke-opacity:1;stroke-miterlimit:4;stroke-dasharray:none"
     id="rect4182"
     width="93.599998"
     height="11.477145"
     x="838.14288"
     y="336.28571" />
  <rect
     style="fill:none;fill-opacity:1;stroke:#000000;stroke-width:0.09;stroke-opacity:1;stroke-miterlimit:4;stroke-dasharray:none"
     id="rect4184"
     width="34.061253"
     height="39.921852"
     x="944.55859"
     y="357.16208" />
  <circle
     style="fill:none;fill-opacity:1;stroke:#000000;stroke-width:0.09;stroke-opacity:1;stroke-miterlimit:4;stroke-dasharray:none"
     id="path4188"
     cx="70.417145"
     cy="414.52997"
     r="4.8567076" />
  <circle
     style="fill:none;fill-opacity:1;stroke:#000000;stroke-width:0.09;stroke-miterlimit:4;stroke-dasharray:none;stroke-opacity:1"
     id="path4190"
     cx="109.62"
     cy="319.81"
     r="5.5140843" />
  <circle
     style="fill:none;fill-opacity:1;stroke:#000000;stroke-width:0.09;stroke-miterlimit:4;stroke-dasharray:none;stroke-opacity:1"
     id="path4190-3"
     cx="109.64408"
     cy="285.39285"
     r="5.5140843" />
  <circle
     style="fill:none;fill-opacity:1;stroke:#000000;stroke-width:0.09;stroke-opacity:1;stroke-miterlimit:4;stroke-dasharray:none"
     id="path4188-8"
     cx="70.440002"
     cy="524.82483"
     r="4.8567076" />
  <circle
     style="fill:none;fill-opacity:1;stroke:#000000;stroke-width:0.09;stroke-opacity:1;stroke-miterlimit:4;stroke-dasharray:none"
     id="path4188-8-1"
     cx="339.74811"
     cy="524.78998"
     r="4.8567076" />
  <circle
     style="fill:none;fill-opacity:1;stroke:#000000;stroke-width:0.09;stroke-opacity:1;stroke-miterlimit:4;stroke-dasharray:none"
     id="path4188-8-4"
     cx="339.75"
     cy="414.54001"
     r="4.8567076" />
</svg>
